<mxfile host="app.diagrams.net" modified="2023-12-16T13:22:00.604Z" agent="Mozilla/5.0 (Windows NT 10.0; Win64; x64) AppleWebKit/537.36 (KHTML, like Gecko) Chrome/120.0.0.0 Safari/537.36" etag="tadr4ZL5ov2OG5e_M7rT" version="22.1.11" type="device">
  <diagram name="Page-1" id="VaPVOyAO1_8T0sMj2cJO">
    <mxGraphModel dx="1050" dy="1665" grid="1" gridSize="10" guides="1" tooltips="1" connect="1" arrows="1" fold="1" page="1" pageScale="1" pageWidth="850" pageHeight="1100" math="0" shadow="0">
      <root>
        <mxCell id="0" />
        <mxCell id="1" parent="0" />
        <mxCell id="0gSWi3uyxjbt9Z0_u7Uw-12" value="Home Page" style="rounded=0;whiteSpace=wrap;html=1;" vertex="1" parent="1">
          <mxGeometry x="265" y="-20" width="250" height="40" as="geometry" />
        </mxCell>
        <mxCell id="0gSWi3uyxjbt9Z0_u7Uw-13" value="" style="shape=flexArrow;endArrow=classic;html=1;rounded=0;entryX=0.5;entryY=0;entryDx=0;entryDy=0;" edge="1" parent="1" target="0gSWi3uyxjbt9Z0_u7Uw-15">
          <mxGeometry width="50" height="50" relative="1" as="geometry">
            <mxPoint x="390" y="20" as="sourcePoint" />
            <mxPoint x="390" y="110" as="targetPoint" />
          </mxGeometry>
        </mxCell>
        <mxCell id="0gSWi3uyxjbt9Z0_u7Uw-41" value="" style="edgeStyle=orthogonalEdgeStyle;rounded=0;orthogonalLoop=1;jettySize=auto;html=1;" edge="1" parent="1" source="0gSWi3uyxjbt9Z0_u7Uw-14" target="0gSWi3uyxjbt9Z0_u7Uw-40">
          <mxGeometry relative="1" as="geometry" />
        </mxCell>
        <mxCell id="0gSWi3uyxjbt9Z0_u7Uw-14" value="Pearl Bag" style="rounded=1;whiteSpace=wrap;html=1;" vertex="1" parent="1">
          <mxGeometry x="30" y="260" width="120" height="60" as="geometry" />
        </mxCell>
        <mxCell id="0gSWi3uyxjbt9Z0_u7Uw-15" value="Products for sale" style="rounded=1;whiteSpace=wrap;html=1;" vertex="1" parent="1">
          <mxGeometry x="330" y="120" width="120" height="60" as="geometry" />
        </mxCell>
        <mxCell id="0gSWi3uyxjbt9Z0_u7Uw-43" value="" style="edgeStyle=orthogonalEdgeStyle;rounded=0;orthogonalLoop=1;jettySize=auto;html=1;" edge="1" parent="1" source="0gSWi3uyxjbt9Z0_u7Uw-16">
          <mxGeometry relative="1" as="geometry">
            <mxPoint x="240" y="400" as="targetPoint" />
          </mxGeometry>
        </mxCell>
        <mxCell id="0gSWi3uyxjbt9Z0_u7Uw-16" value="Sunflower Necklace" style="rounded=1;whiteSpace=wrap;html=1;" vertex="1" parent="1">
          <mxGeometry x="180" y="260" width="120" height="60" as="geometry" />
        </mxCell>
        <mxCell id="0gSWi3uyxjbt9Z0_u7Uw-18" value="" style="edgeStyle=elbowEdgeStyle;elbow=vertical;endArrow=classic;html=1;curved=0;rounded=0;endSize=8;startSize=8;" edge="1" parent="1">
          <mxGeometry width="50" height="50" relative="1" as="geometry">
            <mxPoint x="350" y="183" as="sourcePoint" />
            <mxPoint x="80" y="260" as="targetPoint" />
          </mxGeometry>
        </mxCell>
        <mxCell id="0gSWi3uyxjbt9Z0_u7Uw-48" value="" style="edgeStyle=orthogonalEdgeStyle;rounded=0;orthogonalLoop=1;jettySize=auto;html=1;" edge="1" parent="1" source="0gSWi3uyxjbt9Z0_u7Uw-19" target="0gSWi3uyxjbt9Z0_u7Uw-46">
          <mxGeometry relative="1" as="geometry" />
        </mxCell>
        <mxCell id="0gSWi3uyxjbt9Z0_u7Uw-19" value="Cherry Set" style="rounded=1;whiteSpace=wrap;html=1;" vertex="1" parent="1">
          <mxGeometry x="530" y="260" width="120" height="60" as="geometry" />
        </mxCell>
        <mxCell id="0gSWi3uyxjbt9Z0_u7Uw-21" value="" style="edgeStyle=elbowEdgeStyle;elbow=vertical;endArrow=classic;html=1;curved=0;rounded=0;endSize=8;startSize=8;entryX=0.407;entryY=0.003;entryDx=0;entryDy=0;entryPerimeter=0;exitX=0.7;exitY=1.03;exitDx=0;exitDy=0;exitPerimeter=0;" edge="1" parent="1" source="0gSWi3uyxjbt9Z0_u7Uw-15" target="0gSWi3uyxjbt9Z0_u7Uw-19">
          <mxGeometry width="50" height="50" relative="1" as="geometry">
            <mxPoint x="440" y="180" as="sourcePoint" />
            <mxPoint x="550" y="260" as="targetPoint" />
            <Array as="points">
              <mxPoint x="500" y="240" />
            </Array>
          </mxGeometry>
        </mxCell>
        <mxCell id="0gSWi3uyxjbt9Z0_u7Uw-22" value="" style="endArrow=classic;html=1;rounded=0;exitX=0.56;exitY=1.057;exitDx=0;exitDy=0;exitPerimeter=0;" edge="1" parent="1" source="0gSWi3uyxjbt9Z0_u7Uw-15">
          <mxGeometry width="50" height="50" relative="1" as="geometry">
            <mxPoint x="400" y="260" as="sourcePoint" />
            <mxPoint x="397" y="260" as="targetPoint" />
            <Array as="points" />
          </mxGeometry>
        </mxCell>
        <mxCell id="0gSWi3uyxjbt9Z0_u7Uw-50" value="" style="edgeStyle=orthogonalEdgeStyle;rounded=0;orthogonalLoop=1;jettySize=auto;html=1;" edge="1" parent="1" source="0gSWi3uyxjbt9Z0_u7Uw-24" target="0gSWi3uyxjbt9Z0_u7Uw-47">
          <mxGeometry relative="1" as="geometry" />
        </mxCell>
        <mxCell id="0gSWi3uyxjbt9Z0_u7Uw-24" value="Pearl Earings" style="rounded=1;whiteSpace=wrap;html=1;" vertex="1" parent="1">
          <mxGeometry x="680" y="260" width="120" height="60" as="geometry" />
        </mxCell>
        <mxCell id="0gSWi3uyxjbt9Z0_u7Uw-49" value="" style="edgeStyle=orthogonalEdgeStyle;rounded=0;orthogonalLoop=1;jettySize=auto;html=1;" edge="1" parent="1" source="0gSWi3uyxjbt9Z0_u7Uw-25" target="0gSWi3uyxjbt9Z0_u7Uw-45">
          <mxGeometry relative="1" as="geometry" />
        </mxCell>
        <mxCell id="0gSWi3uyxjbt9Z0_u7Uw-25" value="Aqua Necklace" style="rounded=1;whiteSpace=wrap;html=1;" vertex="1" parent="1">
          <mxGeometry x="350" y="260" width="120" height="60" as="geometry" />
        </mxCell>
        <mxCell id="0gSWi3uyxjbt9Z0_u7Uw-26" value="" style="edgeStyle=elbowEdgeStyle;elbow=vertical;endArrow=classic;html=1;curved=0;rounded=0;endSize=8;startSize=8;exitX=0.407;exitY=1.003;exitDx=0;exitDy=0;exitPerimeter=0;entryX=0.637;entryY=-0.01;entryDx=0;entryDy=0;entryPerimeter=0;" edge="1" parent="1" source="0gSWi3uyxjbt9Z0_u7Uw-15" target="0gSWi3uyxjbt9Z0_u7Uw-16">
          <mxGeometry width="50" height="50" relative="1" as="geometry">
            <mxPoint x="380" y="190" as="sourcePoint" />
            <mxPoint x="230" y="280" as="targetPoint" />
            <Array as="points">
              <mxPoint x="320" y="240" />
            </Array>
          </mxGeometry>
        </mxCell>
        <mxCell id="0gSWi3uyxjbt9Z0_u7Uw-27" value="" style="edgeStyle=elbowEdgeStyle;elbow=vertical;endArrow=classic;html=1;curved=0;rounded=0;endSize=8;startSize=8;" edge="1" parent="1" target="0gSWi3uyxjbt9Z0_u7Uw-24">
          <mxGeometry width="50" height="50" relative="1" as="geometry">
            <mxPoint x="430" y="180" as="sourcePoint" />
            <mxPoint x="569" y="260" as="targetPoint" />
          </mxGeometry>
        </mxCell>
        <mxCell id="0gSWi3uyxjbt9Z0_u7Uw-30" value="Buy" style="rounded=1;whiteSpace=wrap;html=1;" vertex="1" parent="1">
          <mxGeometry x="200" y="525" width="80" height="30" as="geometry" />
        </mxCell>
        <mxCell id="0gSWi3uyxjbt9Z0_u7Uw-31" value="" style="endArrow=classic;html=1;rounded=0;" edge="1" parent="1">
          <mxGeometry width="50" height="50" relative="1" as="geometry">
            <mxPoint x="280" y="539.5" as="sourcePoint" />
            <mxPoint x="350" y="539.5" as="targetPoint" />
            <Array as="points" />
          </mxGeometry>
        </mxCell>
        <mxCell id="0gSWi3uyxjbt9Z0_u7Uw-36" value="" style="edgeStyle=orthogonalEdgeStyle;rounded=0;orthogonalLoop=1;jettySize=auto;html=1;" edge="1" parent="1" source="0gSWi3uyxjbt9Z0_u7Uw-34" target="0gSWi3uyxjbt9Z0_u7Uw-35">
          <mxGeometry relative="1" as="geometry" />
        </mxCell>
        <mxCell id="0gSWi3uyxjbt9Z0_u7Uw-34" value="Contact Form" style="rounded=1;whiteSpace=wrap;html=1;" vertex="1" parent="1">
          <mxGeometry x="350" y="530" width="120" height="25" as="geometry" />
        </mxCell>
        <mxCell id="0gSWi3uyxjbt9Z0_u7Uw-39" value="" style="edgeStyle=orthogonalEdgeStyle;rounded=0;orthogonalLoop=1;jettySize=auto;html=1;" edge="1" parent="1" source="0gSWi3uyxjbt9Z0_u7Uw-35" target="0gSWi3uyxjbt9Z0_u7Uw-38">
          <mxGeometry relative="1" as="geometry" />
        </mxCell>
        <mxCell id="0gSWi3uyxjbt9Z0_u7Uw-35" value="Name:&lt;br&gt;Surname:&lt;br&gt;Number:&lt;br&gt;Adress:&lt;br&gt;pcs:&lt;br&gt;Credit card:" style="whiteSpace=wrap;html=1;rounded=1;" vertex="1" parent="1">
          <mxGeometry x="350" y="640" width="120" height="150" as="geometry" />
        </mxCell>
        <mxCell id="0gSWi3uyxjbt9Z0_u7Uw-37" style="edgeStyle=orthogonalEdgeStyle;rounded=0;orthogonalLoop=1;jettySize=auto;html=1;exitX=0.5;exitY=1;exitDx=0;exitDy=0;" edge="1" parent="1" source="0gSWi3uyxjbt9Z0_u7Uw-35" target="0gSWi3uyxjbt9Z0_u7Uw-35">
          <mxGeometry relative="1" as="geometry" />
        </mxCell>
        <mxCell id="0gSWi3uyxjbt9Z0_u7Uw-38" value="SUBMIT" style="whiteSpace=wrap;html=1;rounded=1;" vertex="1" parent="1">
          <mxGeometry x="510" y="695" width="120" height="40" as="geometry" />
        </mxCell>
        <mxCell id="0gSWi3uyxjbt9Z0_u7Uw-40" value="Color:&lt;br&gt;pcs&lt;br&gt;size&lt;br&gt;material&lt;br&gt;" style="whiteSpace=wrap;html=1;rounded=1;" vertex="1" parent="1">
          <mxGeometry x="30" y="400" width="120" height="60" as="geometry" />
        </mxCell>
        <mxCell id="0gSWi3uyxjbt9Z0_u7Uw-44" value="Color:&lt;br&gt;pcs&lt;br&gt;size&lt;br&gt;material&lt;br&gt;" style="whiteSpace=wrap;html=1;rounded=1;" vertex="1" parent="1">
          <mxGeometry x="180" y="400" width="120" height="60" as="geometry" />
        </mxCell>
        <mxCell id="0gSWi3uyxjbt9Z0_u7Uw-45" value="Color:&lt;br&gt;pcs&lt;br&gt;size&lt;br&gt;material&lt;br&gt;" style="whiteSpace=wrap;html=1;rounded=1;" vertex="1" parent="1">
          <mxGeometry x="350" y="400" width="120" height="60" as="geometry" />
        </mxCell>
        <mxCell id="0gSWi3uyxjbt9Z0_u7Uw-46" value="Color:&lt;br&gt;pcs&lt;br&gt;size&lt;br&gt;material&lt;br&gt;" style="whiteSpace=wrap;html=1;rounded=1;" vertex="1" parent="1">
          <mxGeometry x="530" y="400" width="120" height="60" as="geometry" />
        </mxCell>
        <mxCell id="0gSWi3uyxjbt9Z0_u7Uw-47" value="Color:&lt;br&gt;pcs&lt;br&gt;size&lt;br&gt;material&lt;br&gt;" style="whiteSpace=wrap;html=1;rounded=1;" vertex="1" parent="1">
          <mxGeometry x="680" y="402" width="120" height="60" as="geometry" />
        </mxCell>
      </root>
    </mxGraphModel>
  </diagram>
</mxfile>
